HIERARCHY
ROOT Hips
{
  OFFSET 2.06909 98.7677 4.72708
  CHANNELS 6 Xposition Yposition Zposition Zrotation Xrotation Yrotation
  JOINT Spine
  {
    OFFSET 0 10.1816 0.1315
    CHANNELS 6 Xposition Yposition Zposition Zrotation Xrotation Yrotation
    JOINT Spine1
    {
      OFFSET 0 10.0835 -1.0008
      CHANNELS 6 Xposition Yposition Zposition Zrotation Xrotation Yrotation
      JOINT Spine2
      {
        OFFSET 0 9.1 -1.3734
        CHANNELS 6 Xposition Yposition Zposition Zrotation Xrotation Yrotation
        JOINT Neck
        {
          OFFSET 0 16.6717 -2.5162
          CHANNELS 6 Xposition Yposition Zposition Zrotation Xrotation Yrotation
          JOINT Head
          {
            OFFSET 0 9.6179 1.685
            CHANNELS 6 Xposition Yposition Zposition Zrotation Xrotation Yrotation
            JOINT HeadTop_End
            {
              OFFSET 0 17.8152 2.585
              CHANNELS 6 Xposition Yposition Zposition Zrotation Xrotation Yrotation
              End Site
              {
                OFFSET 0 0 0
              }
            }
            JOINT LeftEye
            {
              OFFSET 3.0676 6.4095 9.2836
              CHANNELS 6 Xposition Yposition Zposition Zrotation Xrotation Yrotation
              End Site
              {
                OFFSET 0 0 0
              }
            }
            JOINT RightEye
            {
              OFFSET -3.0676 6.4095 9.2835
              CHANNELS 6 Xposition Yposition Zposition Zrotation Xrotation Yrotation
              End Site
              {
                OFFSET 0 0 0
              }
            }
          }
        }
        JOINT LeftShoulder
        {
          OFFSET 4.5704 10.946 -2.628
          CHANNELS 6 Xposition Yposition Zposition Zrotation Xrotation Yrotation
          JOINT LeftArm
          {
            OFFSET 10.5924 -0.5246 -2.2321
            CHANNELS 6 Xposition Yposition Zposition Zrotation Xrotation Yrotation
            JOINT LeftForeArm
            {
              OFFSET 27.8415 -0.0001 0
              CHANNELS 6 Xposition Yposition Zposition Zrotation Xrotation Yrotation
              JOINT LeftHand
              {
                OFFSET 28.3288 0 0
                CHANNELS 6 Xposition Yposition Zposition Zrotation Xrotation Yrotation
                JOINT LeftHandThumb1
                {
                  OFFSET 2.4661 -1.575 2.6824
                  CHANNELS 6 Xposition Yposition Zposition Zrotation Xrotation Yrotation
                  JOINT LeftHandThumb2
                  {
                    OFFSET 3.2298 -1.8647 1.8647
                    CHANNELS 6 Xposition Yposition Zposition Zrotation Xrotation Yrotation
                    JOINT LeftHandThumb3
                    {
                      OFFSET 2.6526 -1.5315 1.5315
                      CHANNELS 6 Xposition Yposition Zposition Zrotation Xrotation Yrotation
                      End Site
                      {
                        OFFSET 1.9546 -1.1285 1.1285
                      }
                    }
                  }
                }
                JOINT LeftHandIndex1
                {
                  OFFSET 9.1093 -0.5171 2.2601
                  CHANNELS 6 Xposition Yposition Zposition Zrotation Xrotation Yrotation
                  JOINT LeftHandIndex2
                  {
                    OFFSET 3.6764 0 0
                    CHANNELS 6 Xposition Yposition Zposition Zrotation Xrotation Yrotation
                    JOINT LeftHandIndex3
                    {
                      OFFSET 2.8831 0 0
                      CHANNELS 6 Xposition Yposition Zposition Zrotation Xrotation Yrotation
                      End Site
                      {
                        OFFSET 2.3927 0 0
                      }
                    }
                  }
                }
                JOINT LeftHandMiddle1
                {
                  OFFSET 9.5334 0 0
                  CHANNELS 6 Xposition Yposition Zposition Zrotation Xrotation Yrotation
                  JOINT LeftHandMiddle2
                  {
                    OFFSET 3.6982 0 0
                    CHANNELS 6 Xposition Yposition Zposition Zrotation Xrotation Yrotation
                    JOINT LeftHandMiddle3
                    {
                      OFFSET 2.9509 0 0
                      CHANNELS 6 Xposition Yposition Zposition Zrotation Xrotation Yrotation
                      End Site
                      {
                        OFFSET 2.8339 0 0
                      }
                    }
                  }
                }
                JOINT LeftHandRing1
                {
                  OFFSET 9.1045 -0.0439 -1.8651
                  CHANNELS 6 Xposition Yposition Zposition Zrotation Xrotation Yrotation
                  JOINT LeftHandRing2
                  {
                    OFFSET 3.154 0 0
                    CHANNELS 6 Xposition Yposition Zposition Zrotation Xrotation Yrotation
                    JOINT LeftHandRing3
                    {
                      OFFSET 2.9377 0 0
                      CHANNELS 6 Xposition Yposition Zposition Zrotation Xrotation Yrotation
                      End Site
                      {
                        OFFSET 2.6475 0 0
                      }
                    }
                  }
                }
                JOINT LeftHandPinky1
                {
                  OFFSET 8.0778 -0.4887 -3.8061
                  CHANNELS 6 Xposition Yposition Zposition Zrotation Xrotation Yrotation
                  JOINT LeftHandPinky2
                  {
                    OFFSET 3.6 0 0
                    CHANNELS 6 Xposition Yposition Zposition Zrotation Xrotation Yrotation
                    JOINT LeftHandPinky3
                    {
                      OFFSET 2.1142 0 0
                      CHANNELS 6 Xposition Yposition Zposition Zrotation Xrotation Yrotation
                      End Site
                      {
                        OFFSET 1.9757 0 0
                      }
                    }
                  }
                }
              }
            }
          }
        }
        JOINT RightShoulder
        {
          OFFSET -4.57 10.9462 -2.628
          CHANNELS 6 Xposition Yposition Zposition Zrotation Xrotation Yrotation
          JOINT RightArm
          {
            OFFSET -10.5928 -0.5248 -2.2321
            CHANNELS 6 Xposition Yposition Zposition Zrotation Xrotation Yrotation
            JOINT RightForeArm
            {
              OFFSET -27.8415 0 0
              CHANNELS 6 Xposition Yposition Zposition Zrotation Xrotation Yrotation
              JOINT RightHand
              {
                OFFSET -28.3288 0 0.0001
                CHANNELS 6 Xposition Yposition Zposition Zrotation Xrotation Yrotation
                JOINT RightHandPinky1
                {
                  OFFSET -8.0767 -0.4885 -3.806
                  CHANNELS 6 Xposition Yposition Zposition Zrotation Xrotation Yrotation
                  JOINT RightHandPinky2
                  {
                    OFFSET -3.6 0 0.0001
                    CHANNELS 6 Xposition Yposition Zposition Zrotation Xrotation Yrotation
                    JOINT RightHandPinky3
                    {
                      OFFSET -2.1142 0 0
                      CHANNELS 6 Xposition Yposition Zposition Zrotation Xrotation Yrotation
                      End Site
                      {
                        OFFSET -1.9757 0 0
                      }
                    }
                  }
                }
                JOINT RightHandRing1
                {
                  OFFSET -9.1036 -0.0439 -1.8651
                  CHANNELS 6 Xposition Yposition Zposition Zrotation Xrotation Yrotation
                  JOINT RightHandRing2
                  {
                    OFFSET -3.154 0 0
                    CHANNELS 6 Xposition Yposition Zposition Zrotation Xrotation Yrotation
                    JOINT RightHandRing3
                    {
                      OFFSET -2.9377 0 0
                      CHANNELS 6 Xposition Yposition Zposition Zrotation Xrotation Yrotation
                      End Site
                      {
                        OFFSET -2.6475 0 0
                      }
                    }
                  }
                }
                JOINT RightHandMiddle1
                {
                  OFFSET -9.5325 0 0
                  CHANNELS 6 Xposition Yposition Zposition Zrotation Xrotation Yrotation
                  JOINT RightHandMiddle2
                  {
                    OFFSET -3.6982 0 0
                    CHANNELS 6 Xposition Yposition Zposition Zrotation Xrotation Yrotation
                    JOINT RightHandMiddle3
                    {
                      OFFSET -2.9509 0 0
                      CHANNELS 6 Xposition Yposition Zposition Zrotation Xrotation Yrotation
                      End Site
                      {
                        OFFSET -2.8339 0 0.0001
                      }
                    }
                  }
                }
                JOINT RightHandIndex1
                {
                  OFFSET -9.1083 -0.5168 2.2601
                  CHANNELS 6 Xposition Yposition Zposition Zrotation Xrotation Yrotation
                  JOINT RightHandIndex2
                  {
                    OFFSET -3.6764 0 0
                    CHANNELS 6 Xposition Yposition Zposition Zrotation Xrotation Yrotation
                    JOINT RightHandIndex3
                    {
                      OFFSET -2.8831 0 0
                      CHANNELS 6 Xposition Yposition Zposition Zrotation Xrotation Yrotation
                      End Site
                      {
                        OFFSET -2.3927 0 0
                      }
                    }
                  }
                }
                JOINT RightHandThumb1
                {
                  OFFSET -2.4648 -1.5727 2.6826
                  CHANNELS 6 Xposition Yposition Zposition Zrotation Xrotation Yrotation
                  JOINT RightHandThumb2
                  {
                    OFFSET -3.2298 -1.8647 1.8647
                    CHANNELS 6 Xposition Yposition Zposition Zrotation Xrotation Yrotation
                    JOINT RightHandThumb3
                    {
                      OFFSET -2.6526 -1.5314 1.5314
                      CHANNELS 6 Xposition Yposition Zposition Zrotation Xrotation Yrotation
                      End Site
                      {
                        OFFSET -1.9546 -1.1285 1.1285
                      }
                    }
                  }
                }
              }
            }
          }
        }
      }
    }
  }
  JOINT LeftUpLeg
  {
    OFFSET 8.2078 -6.7517 -1.5996
    CHANNELS 6 Xposition Yposition Zposition Zrotation Xrotation Yrotation
    JOINT LeftLeg
    {
      OFFSET 0 -44.3705 0.2846
      CHANNELS 6 Xposition Yposition Zposition Zrotation Xrotation Yrotation
      JOINT LeftFoot
      {
        OFFSET 0 -44.4279 -2.9822
        CHANNELS 6 Xposition Yposition Zposition Zrotation Xrotation Yrotation
        JOINT LeftToeBase
        {
          OFFSET 0 -8.7287 10.7106
          CHANNELS 6 Xposition Yposition Zposition Zrotation Xrotation Yrotation
          End Site
          {
            OFFSET 0 -0.0007 9.2781
          }
        }
      }
    }
  }
  JOINT RightUpLeg
  {
    OFFSET -8.2078 -6.7517 -1.5996
    CHANNELS 6 Xposition Yposition Zposition Zrotation Xrotation Yrotation
    JOINT RightLeg
    {
      OFFSET 0 -44.3705 0.2862
      CHANNELS 6 Xposition Yposition Zposition Zrotation Xrotation Yrotation
      JOINT RightFoot
      {
        OFFSET 0 -44.4277 -2.9838
        CHANNELS 6 Xposition Yposition Zposition Zrotation Xrotation Yrotation
        JOINT RightToeBase
        {
          OFFSET 0 -8.7287 10.7106
          CHANNELS 6 Xposition Yposition Zposition Zrotation Xrotation Yrotation
          End Site
          {
            OFFSET 0 -0.0007 9.2781
          }
        }
      }
    }
  }
}
MOTION
Frames:	4
Frame Time:	0.0333333
1.63421 101.785 0.182553 -1.21026 -0.998514 0.95923 2.22045e-016 10.1816 0.1315 1.47897 0.721527 0.29479 4.44089e-016 10.0835 -1.0008 -2.11522 3.29303 0.0876634 0 9.1 -1.3734 -2.11166 3.29499 0.110807 -8.88178e-016 16.6717 -2.5162 2.86512 2.8158 -1.09921 -4.16334e-016 9.6179 1.685 3.11701 -6.2529 -2.37337 -1.77636e-015 17.8152 2.585 -1.73937e-016 -3.97569e-016 7.95139e-016 3.0676 6.4095 9.2836 -1.73937e-016 -3.97569e-016 7.95139e-016 -3.0676 6.4095 9.2835 -1.73937e-016 -3.97569e-016 7.95139e-016 4.5704 10.946 -2.628 -12 0.921988 0.228312 10.5924 -0.5246 -2.2321 -57.0005 28.6438 -8.75452 27.8415 -0.0001 3.55271e-015 -0.00022425 -3.12188e-006 -24.702 28.3288 7.10543e-015 -3.55271e-015 14.6572 -48.4677 14.3418 2.4661 -1.575 2.6824 7.65155 4.80106 25.7257 3.2298 -1.8647 1.8647 1.80639 6.4016 15.5243 2.6526 -1.5315 1.5315 3.26654 0.746768 5.40217 9.1093 -0.5171 2.2601 -16.8852 -0.297048 2.00114 3.6764 -8.88178e-016 0 -11.5447 -0.139374 1.3787 2.8831 -3.55271e-015 7.10543e-015 -5.77278 -0.0349337 0.692863 9.5334 3.55271e-015 7.10543e-015 -21.7855 -0.491405 3.31748 3.6982 -3.9968e-015 0 -16.8605 -0.296184 1.99829 2.9509 -3.55271e-015 0 -11.0121 -0.126853 1.31588 9.1045 -0.0439 -1.8651 -27.944 -0.800774 4.93999 3.154 1.77636e-015 0 -23.4729 -0.570332 2.74474 2.9377 -7.10543e-015 -3.55271e-015 -17.5613 -0.321135 2.07882 8.0778 -0.4887 -3.8061 -32.9343 -1.06044 10.4231 3.6 -3.55271e-015 3.55271e-015 -28.906 1.11495 -0.279077 2.1142 -7.10543e-015 0 -22.6407 -0.531109 2.65258 -4.57 10.9462 -2.628 12 0.125001 -7.59245 -10.5928 -0.5248 -2.2321 56.045 52.5765 7.7912 -27.8415 -3.55271e-015 1.42109e-014 1.4291e-005 2.0752e-005 34.0716 -28.3288 -3.55271e-015 0.0001 -10.8368 -39.9835 -8.53882 -8.0767 -0.4885 -3.806 31.437 -1.01762 -5.68418 -3.6 3.55271e-015 0.0001 24.0002 -0.601048 -2.82875 -2.1142 7.10543e-015 -2.66454e-015 16.6021 -0.290049 -1.98774 -9.1036 -0.0439 -1.8651 28.4684 -0.839808 -4.68833 -3.154 -1.77636e-015 1.77636e-015 21.3094 -0.475765 -2.52846 -2.9377 1.42109e-014 0 13.8269 -0.365121 -1.6631 -9.5325 0 3.55271e-015 25.1496 -0.659422 -3.56661 -3.6982 -8.88178e-016 3.55271e-015 17.6955 -0.329206 -2.11465 -2.9509 0 1.77636e-015 10.2575 -0.245521 -1.24105 -9.1083 -0.5168 2.2601 22.494 -0.529454 -2.66202 -3.6764 -4.44089e-015 0 14.8065 -0.231017 -1.77779 -2.8831 -3.55271e-015 -3.55271e-015 7.40413 -0.0579945 -0.896368 -2.4648 -1.5727 2.6826 -12.0217 10.6162 -19.0534 -3.2298 -1.8647 1.8647 0.508367 7.38295 -13.9266 -2.6526 -1.5314 1.5314 -2.00427 0.208665 -2.48592 8.2078 -6.7517 -1.5996 0.410654 -8.20116 7.09208 -8.88178e-016 -44.3705 0.2846 0.28763 23.1614 -7.45182 -8.88178e-016 -44.4279 -2.9822 3.56153 -13.8033 0.568392 0 -8.7287 10.7106 1.8209e-007 -0.129342 -1.22162e-008 -8.2078 -6.7517 -1.5996 1.20081 -8.64996 -4.37028 0 -44.3705 0.2862 -2.01765 21.9086 6.59578 0 -44.4277 -2.9838 -0.128513 -12.3698 -0.10037 0 -8.7287 10.7106 -1.95878e-007 -0.103922 -6.39618e-007 
1.70288 101.466 -0.394094 -0.502056 -0.706417 1.44017 0 10.1816 0.1315 0.68842 3.54592 -0.203626 0 10.0835 -1.0008 -1.9419 2.10716 0.0117665 4.44089e-016 9.1 -1.3734 -1.94004 2.10756 0.021078 8.88178e-016 16.6717 -2.5162 2.83954 2.95396 -1.06364 -5.55112e-017 9.6179 1.685 3.01555 -6.62453 -2.20903 -1.77636e-015 17.8152 2.585 -7.45443e-017 -7.95139e-016 3.97569e-016 3.0676 6.4095 9.2836 -7.45443e-017 -7.95139e-016 3.97569e-016 -3.0676 6.4095 9.2835 -7.45443e-017 -7.95139e-016 3.97569e-016 4.5704 10.946 -2.628 -12 0.934733 0.168448 10.5924 -0.5246 -2.2321 -57.1317 26.6966 -8.94697 27.8415 -0.0001 -3.55271e-015 -0.000209926 -9.3927e-006 -27.286 28.3288 0 -1.06581e-014 17.6093 -46.459 17.0822 2.4661 -1.575 2.6824 7.65545 4.78379 25.7138 3.2298 -1.8647 1.8647 1.81013 6.40027 15.523 2.6526 -1.5315 1.5315 3.26823 0.745851 5.40168 9.1093 -0.5171 2.2601 -17.1353 -0.305857 2.02989 3.6764 8.88178e-016 0 -11.5373 -0.139201 1.37782 2.8831 0 0 -5.76909 -0.0348945 0.692416 9.5334 0 0 -21.8252 -0.492642 3.56457 3.6982 4.21885e-015 0 -16.6576 -0.289153 1.97492 2.9509 1.06581e-014 -7.10543e-015 -10.8171 -0.122406 1.29285 9.1045 -0.0439 -1.8651 -27.7213 -0.785954 5.46221 3.154 1.77636e-015 3.55271e-015 -23.0302 -0.549304 2.69579 2.9377 -7.10543e-015 -3.55271e-015 -17.129 -0.305628 2.02917 8.0778 -0.4887 -3.8061 -32.4783 -1.01841 11.194 3.6 0 -3.55271e-015 -28.2867 1.11146 -0.365553 2.1142 0 -3.55271e-015 -22.0258 -0.502993 2.58414 -4.57 10.9462 -2.628 12 0.164046 -7.48487 -10.5928 -0.5248 -2.2321 55.8897 51.4045 7.20718 -27.8415 0 0 1.08084e-005 1.71458e-005 36.2886 -28.3288 -3.55271e-015 0.0001 -11.369 -40.2799 -9.21769 -8.0767 -0.4885 -3.806 30.7705 -0.972501 -6.27371 -3.6 3.55271e-015 0.0001 23.4115 -0.572302 -2.76323 -2.1142 0 -8.88178e-016 16.0173 -0.270097 -1.91956 -9.1036 -0.0439 -1.8651 28.0203 -0.812573 -5.0805 -3.154 -1.77636e-015 0 20.8886 -0.457358 -2.48076 -2.9377 -7.10543e-015 3.55271e-015 13.415 -0.394872 -1.61461 -9.5325 -3.55271e-015 3.55271e-015 24.9459 -0.648647 -3.73981 -3.6982 1.77636e-015 0 17.5028 -0.322126 -2.09232 -2.9509 7.10543e-015 0 10.0714 -0.275142 -1.21889 -9.1083 -0.5168 2.2601 22.486 -0.529086 -2.66112 -3.6764 8.88178e-016 3.55271e-015 14.7982 -0.230759 -1.77681 -2.8831 -3.55271e-015 3.55271e-015 7.39998 -0.0579342 -0.895869 -2.4648 -1.5727 2.6826 -12.0228 10.603 -19.0405 -3.2298 -1.8647 1.8647 0.508367 7.38295 -13.9266 -2.6526 -1.5314 1.5314 -2.00427 0.208665 -2.48592 8.2078 -6.7517 -1.5996 -0.61631 -9.56885 7.35622 8.88178e-016 -44.3705 0.2846 1.00614 24.4542 -8.11263 0 -44.4279 -2.9822 3.55057 -14.0615 0.648172 0 -8.7287 10.7106 3.75473e-007 -0.599736 2.05819e-007 -8.2078 -6.7517 -1.5996 0.625933 -10.4618 -5.23894 8.88178e-016 -44.3705 0.2862 -3.05878 24.2109 7.3797 0 -44.4277 -2.9838 0.20513 -13.2374 -0.0839137 0 -8.7287 10.7106 7.4346e-009 -0.489773 -1.75355e-006 
1.72224 100.573 -0.945629 0.213848 -0.295917 1.89887 0 10.1816 0.1315 -0.0402168 6.39539 -0.611811 2.22045e-016 10.0835 -1.0008 -1.71817 0.975446 -0.0515523 -4.44089e-016 9.1 -1.3734 -1.71651 0.974667 -0.0557976 8.88178e-016 16.6717 -2.5162 2.82096 3.01043 -1.02595 -2.22045e-016 9.6179 1.685 2.89583 -7.24481 -2.03619 -1.77636e-015 17.8152 2.585 -2.98177e-016 7.95139e-016 -3.97569e-016 3.0676 6.4095 9.2836 -2.98177e-016 7.95139e-016 -3.97569e-016 -3.0676 6.4095 9.2835 -2.98177e-016 7.95139e-016 -3.97569e-016 4.5704 10.946 -2.628 -12 0.949945 0.096953 10.5924 -0.5246 -2.2321 -57.573 25.0942 -8.80364 27.8415 -0.0001 -3.55271e-015 -0.000226835 6.71486e-006 -30.0985 28.3288 0 7.10543e-015 19.0941 -42.5827 18.4975 2.4661 -1.575 2.6824 7.6598 4.76456 25.7005 3.2298 -1.8647 1.8647 1.81443 6.39871 15.5214 2.6526 -1.5315 1.5315 3.27028 0.744755 5.4011 9.1093 -0.5171 2.2601 -18.1744 -0.34376 2.14902 3.6764 -1.77636e-015 7.10543e-015 -11.5325 -0.139083 1.37725 2.8831 1.77636e-015 0 -5.76668 -0.0348637 0.692132 9.5334 0 0 -22.6341 -0.528703 3.9201 3.6982 0 0 -16.4381 -0.281629 1.9496 2.9509 0 0 -10.605 -0.11767 1.26779 9.1045 -0.0439 -1.8651 -28.2427 -0.812113 6.11484 3.154 2.66454e-015 0 -22.5486 -0.52685 2.64235 2.9377 7.10543e-015 0 -16.6573 -0.289143 1.97489 8.0778 -0.4887 -3.8061 -32.7444 -1.0205 12.1147 3.6 0 0 -27.6125 1.10661 -0.45963 2.1142 7.10543e-015 -3.55271e-015 -21.3548 -0.47315 2.5091 -4.57 10.9462 -2.628 12 0.212951 -7.44671 -10.5928 -0.5248 -2.2321 56.2645 49.7408 6.22731 -27.8415 -3.55271e-015 0 1.74685e-006 1.95957e-006 38.6992 -28.3288 -3.55271e-015 0.0001 -13.1209 -41.3327 -10.3674 -8.0767 -0.4885 -3.806 30.0422 -0.923057 -6.92003 -3.6 0 0.0001 22.7673 -0.541616 -2.6912 -2.1142 7.10543e-015 1.77636e-015 15.3765 -0.249042 -1.84463 -9.1036 -0.0439 -1.8651 27.5315 -0.78283 -5.51069 -3.154 0 3.55271e-015 20.4281 -0.437616 -2.4284 -2.9377 0 1.77636e-015 12.9639 -0.421771 -1.56138 -9.5325 -7.10543e-015 0 24.7251 -0.636971 -3.93002 -3.6982 0 -3.55271e-015 17.2923 -0.314479 -2.06793 -2.9509 7.10543e-015 0 9.86787 -0.302266 -1.19462 -9.1083 -0.5168 2.2601 22.4797 -0.528786 -2.66041 -3.6764 -1.77636e-015 3.55271e-015 14.7906 -0.230526 -1.77592 -2.8831 3.55271e-015 0 7.39618 -0.0578733 -0.895406 -2.4648 -1.5727 2.6826 -12.0239 10.5895 -19.0273 -3.2298 -1.8647 1.8647 0.508367 7.38295 -13.9266 -2.6526 -1.5314 1.5314 -2.00427 0.208665 -2.48592 8.2078 -6.7517 -1.5996 -1.66561 -12.3229 6.8561 0 -44.3705 0.2846 1.78066 28.3614 -8.05567 8.88178e-016 -44.4279 -2.9822 3.54294 -15.6657 0.804614 0 -8.7287 10.7106 4.85054e-007 -1.24255 2.56902e-007 -8.2078 -6.7517 -1.5996 -0.17512 -13.5908 -5.67855 0 -44.3705 0.2862 -3.82068 29.02 7.77653 8.88178e-016 -44.4277 -2.9838 0.278536 -15.3569 -0.0993415 0 -8.7287 10.7106 -1.68117e-008 -1.56579 -8.06789e-007 
1.67254 98.9748 -1.42213 0.742071 0.31402 2.18192 4.44089e-016 10.1816 0.1315 -0.444642 8.52674 -0.673958 2.22045e-016 10.0835 -1.0008 -1.50262 0.265832 -0.0592563 -4.44089e-016 9.1 -1.3734 -1.50056 0.264979 -0.0721926 -8.88178e-016 16.6717 -2.5162 2.77614 2.80611 -1.00004 0 9.6179 1.685 2.97566 -8.13429 -2.02194 -1.77636e-015 17.8152 2.585 -2.48481e-016 -7.95139e-016 -7.95139e-016 3.0676 6.4095 9.2836 -2.48481e-016 -7.95139e-016 -7.95139e-016 -3.0676 6.4095 9.2835 -2.48481e-016 -7.95139e-016 -7.95139e-016 4.5704 10.946 -2.628 -12 0.931437 0.237338 10.5924 -0.5246 -2.2321 -58.5385 23.5804 -8.58353 27.8415 -0.0001 -3.55271e-015 -0.000188129 -4.14015e-006 -32.678 28.3288 0 -3.55271e-015 18.6462 -38.7677 18.5212 2.4661 -1.575 2.6824 7.66424 4.74516 25.687 3.2298 -1.8647 1.8647 1.81906 6.39706 15.5198 2.6526 -1.5315 1.5315 3.27242 0.743603 5.40049 9.1093 -0.5171 2.2601 -20.5988 -0.440581 2.42415 3.6764 2.66454e-015 7.10543e-015 -14.3078 -0.213705 1.70256 2.8831 -1.77636e-015 0 -7.1547 -0.0536412 0.857956 9.5334 0 0 -24.8115 -0.633055 4.44433 3.6982 4.44089e-016 0 -18.9798 -0.374633 2.24086 2.9509 0 0 -11.7685 -0.144814 1.40505 9.1045 -0.0439 -1.8651 -30.1118 -0.917271 6.951 3.154 1.77636e-015 0 -24.8079 -0.636047 2.89137 2.9377 0 -3.55271e-015 -17.5413 -0.320411 2.07653 8.0778 -0.4887 -3.8061 -34.3401 -1.10832 13.2321 3.6 -8.88178e-015 0 -29.6724 1.11796 -0.172017 2.1142 0 0 -22.0255 -0.502976 2.5841 -4.57 10.9462 -2.628 12 0.254591 -7.62236 -10.5928 -0.5248 -2.2321 57.3504 47.4164 5.04811 -27.8415 -3.55271e-015 0 9.32085e-006 3.78763e-006 40.7608 -28.3288 3.55271e-015 0.0001 -15.3572 -42.6533 -11.3593 -8.0767 -0.4885 -3.806 29.3519 -0.875258 -7.62359 -3.6 -3.55271e-015 0.0001 22.0776 -0.509667 -2.61373 -2.1142 -7.10543e-015 1.77636e-015 14.6893 -0.227387 -1.76402 -9.1036 -0.0439 -1.8651 27.0985 -0.755877 -5.98261 -3.154 5.32907e-015 3.55271e-015 19.9352 -0.416958 -2.37219 -2.9377 7.10543e-015 -3.55271e-015 12.4806 -0.444 -1.50421 -9.5325 -7.10543e-015 0 24.5801 -0.62906 -4.14454 -3.6982 1.77636e-015 0 17.0682 -0.306435 -2.04192 -2.9509 0 0 9.65034 -0.325073 -1.16864 -9.1083 -0.5168 2.2601 22.5652 -0.532769 -2.67002 -3.6764 -8.88178e-016 0 14.7849 -0.230346 -1.77525 -2.8831 0 3.55271e-015 7.39333 -0.0578258 -0.895066 -2.4648 -1.5727 2.6826 -12.0249 10.5772 -19.0153 -3.2298 -1.8647 1.8647 0.508367 7.38295 -13.9266 -2.6526 -1.5314 1.5314 -2.00427 0.208665 -2.48592 8.2078 -6.7517 -1.5996 -2.34653 -16.4315 6.016 8.88178e-016 -44.3705 0.2846 2.26376 34.7464 -7.47877 -1.77636e-015 -44.4279 -2.9822 3.67313 -18.551 1.04952 8.88178e-016 -8.7287 10.7106 -2.01e-006 -1.92805 -1.10317e-006 -8.2078 -6.7517 -1.5996 -1.02153 -17.8769 -5.6702 8.88178e-016 -44.3705 0.2862 -4.13891 35.8824 7.88595 0 -44.4277 -2.9838 0.00772312 -18.4986 -0.164127 0 -8.7287 10.7106 6.84474e-008 -3.31293 2.13537e-007 
